<svg xmlns="http://www.w3.org/2000/svg" style="fill:#fff" height="40" viewBox="0 96 960 960" width="45">
    <path
        d="M292.366 954.614q-26.306 0-44.605-18.508-18.299-18.507-18.299-44.972 0-26.464 18.39-44.876t44.689-18.412q26.298 0 44.802 18.508 18.503 18.508 18.503 44.972 0 26.465-18.508 44.876-18.508 18.412-44.972 18.412Zm384.922 0q-26.306 0-44.605-18.508-18.298-18.507-18.298-44.972 0-26.464 18.389-44.876 18.39-18.412 44.689-18.412t44.802 18.508q18.503 18.508 18.503 44.972 0 26.465-18.508 44.876-18.507 18.412-44.972 18.412ZM233.307 311.077l111.539 232.615h276.846q3.461 0 6.346-1.731 2.885-1.73 4.424-4.808l118.461-215.306q2.308-4.231.384-7.501-1.923-3.269-6.539-3.269H233.307Zm-22.402-43.846h550.946q24.324 0 36.486 21.224 12.161 21.223.853 42.315L677.483 551.336q-9.676 16.086-25.497 26.144-15.82 10.057-33.446 10.057H324.615L269.077 690.23q-2.693 4.615 0 10 2.692 5.385 8.462 5.385h463.229v43.846H285.301q-37.846 0-54.092-25.649-16.246-25.649.33-56.27l64.385-116.913-150.447-318.322H71.001v-43.845H173.77l37.136 78.769Zm133.941 276.461H629 344.846Z" />
</svg>